<?xml version="1.0" standalone="no"?>
<!DOCTYPE svg PUBLIC "-//W3C//DTD SVG 20010904//EN"
 "http://www.w3.org/TR/2001/REC-SVG-20010904/DTD/svg10.dtd">
<svg version="1.0" xmlns="http://www.w3.org/2000/svg"
 width="640.000000pt" height="640.000000pt" viewBox="0 0 640.000000 640.000000"
 preserveAspectRatio="xMidYMid meet">
<metadata>
Created by potrace 1.14, written by Peter Selinger 2001-2017
</metadata>
<g transform="translate(0.000000,640.000000) scale(0.100000,-0.100000)"
fill="#000000" stroke="none">
<path d="M3029 6396 c-2 -2 -35 -6 -73 -10 -377 -35 -804 -217 -1101 -468 -96
-81 -238 -231 -305 -320 -34 -46 -68 -91 -76 -101 -8 -9 -14 -19 -14 -22 0 -3
-16 -29 -35 -59 -126 -198 -227 -488 -262 -756 -10 -74 -10 -393 0 -455 5 -27
10 -66 13 -85 3 -19 10 -55 16 -80 5 -25 11 -54 14 -65 7 -37 52 -179 82 -261
74 -202 157 -371 248 -509 93 -140 273 -405 388 -570 61 -88 184 -270 273
-405 89 -135 166 -250 170 -256 16 -21 34 -50 45 -74 7 -14 15 -27 18 -30 21
-18 205 -370 278 -531 43 -93 111 -267 145 -369 53 -158 127 -461 143 -583 5
-40 12 -108 20 -172 12 -108 75 -197 150 -211 106 -20 186 66 209 226 4 25 7
52 7 60 0 70 80 451 124 595 99 320 301 747 504 1070 123 194 418 633 536 796
295 408 522 818 617 1114 23 72 44 168 75 345 11 58 9 427 -2 470 -3 14 -8 39
-11 55 -12 81 -50 244 -65 280 -5 11 -19 49 -31 85 -49 140 -200 410 -283 504
-14 16 -26 33 -26 37 0 5 -57 66 -127 136 -214 214 -433 361 -703 471 -71 29
-181 67 -225 77 -11 2 -40 9 -65 16 -67 16 -175 37 -235 45 -38 5 -432 14
-436 10z"/>
</g>
</svg>
